<svg xmlns="http://www.w3.org/2000/svg" viewBox="0 0 400 300" data-imageid="scooter-flatline" imageName="Scooter" class="illustrations_image" style="width: 158px;"><g id="_52_scooter" data-name="#52_scooter"><path d="M338.52,224.79H62.2a.5.5,0,0,1-.5-.5.5.5,0,0,1,.5-.5H338.52a.51.51,0,0,1,.5.5A.5.5,0,0,1,338.52,224.79Z" fill="#d1d3d4"/><path d="M208.46,259.12h-7.52a.5.5,0,0,1-.5-.5.5.5,0,0,1,.5-.5h7.52a.5.5,0,0,1,.5.5A.51.51,0,0,1,208.46,259.12Z" fill="#d1d3d4"/><path d="M121.12,246.71h-12a.5.5,0,1,1,0-1h12a.5.5,0,1,1,0,1Z" fill="#d1d3d4"/><path d="M327.27,236.84h-4a.5.5,0,0,1-.5-.5.51.51,0,0,1,.5-.5h4a.51.51,0,0,1,.5.5A.5.5,0,0,1,327.27,236.84Z" fill="#d1d3d4"/><path d="M309.79,251.36h-6a.5.5,0,0,1-.5-.5.5.5,0,0,1,.5-.5h6a.51.51,0,0,1,.5.5A.5.5,0,0,1,309.79,251.36Z" fill="#d1d3d4"/><path d="M333.31,261.36h-6a.5.5,0,0,1-.5-.5.5.5,0,0,1,.5-.5h6a.51.51,0,0,1,.5.5A.5.5,0,0,1,333.31,261.36Z" fill="#d1d3d4"/><path d="M83.47,251.36H78a.5.5,0,0,1-.5-.5.5.5,0,0,1,.5-.5h5.5a.5.5,0,0,1,.5.5A.5.5,0,0,1,83.47,251.36Z" fill="#d1d3d4"/><path d="M89.44,234.2H80.72a.5.5,0,0,1-.5-.5.5.5,0,0,1,.5-.5h8.72a.5.5,0,0,1,.5.5A.51.51,0,0,1,89.44,234.2Z" fill="#d1d3d4"/><path d="M155.05,265.66h-5.44a.5.5,0,0,1-.5-.5.5.5,0,0,1,.5-.5h5.44a.5.5,0,0,1,.5.5A.5.5,0,0,1,155.05,265.66Z" fill="#d1d3d4"/><path d="M220.54,236.84H214a.5.5,0,0,1-.5-.5.51.51,0,0,1,.5-.5h6.58a.51.51,0,0,1,.5.5A.5.5,0,0,1,220.54,236.84Z" fill="#d1d3d4"/><path d="M244.53,251.36H237.4a.5.5,0,0,1-.5-.5.51.51,0,0,1,.5-.5h7.13a.51.51,0,0,1,.5.5A.5.5,0,0,1,244.53,251.36Z" fill="#d1d3d4"/><path d="M321.18,191.47a.49.49,0,0,1-.44-.26c-2.54-4.7-5.19-7.69-8.34-9.4-3.4-1.84-8.46-2.13-11.56.86a.5.5,0,0,1-.7-.72c3.45-3.33,9-3,12.74-1,3.33,1.81,6.11,4.92,8.74,9.81a.49.49,0,0,1-.21.67A.46.46,0,0,1,321.18,191.47Z" fill="#d1d3d4"/><path d="M65.31,199a.54.54,0,0,1-.34-.12c-1.73-1.54-1.13-4.25-.09-6.11a17.33,17.33,0,0,1,17.23-8.41c1.48.22,3,1.12,2.78,2.55a.5.5,0,0,1-1-.15c.12-.8-1.13-1.29-1.94-1.42a16.33,16.33,0,0,0-16.21,7.92c-.92,1.66-1.32,3.8-.11,4.87a.5.5,0,0,1,0,.7A.51.51,0,0,1,65.31,199Z" fill="#d1d3d4"/><path d="M51,199.53a.5.5,0,0,1-.49-.42,14.28,14.28,0,0,1,22.39-13.89c1.39-8.25,6.61-15.28,13.48-18.05,7.35-3,16.19-.41,20.29,5.57a10.45,10.45,0,0,1,3.25-6.28,13.64,13.64,0,0,1,10.83-3.82c6.15.74,11.87,5.23,15.7,12.33a.5.5,0,0,1-.88.48c-3.62-6.72-9.2-11.13-14.94-11.81a12.61,12.61,0,0,0-10,3.53,9,9,0,0,0-3,7.32.51.51,0,0,1-.36.53.49.49,0,0,1-.58-.26c-3.32-6.64-12.46-9.69-20-6.67-6.78,2.74-11.87,9.85-13,18.1a.51.51,0,0,1-.31.4.48.48,0,0,1-.5-.08A13.29,13.29,0,0,0,51.45,199a.51.51,0,0,1-.42.57Z" fill="#d1d3d4"/><path d="M349.21,185.4a.5.5,0,0,1-.5-.48c-.34-7.41-7.9-13.93-16.18-14-7.23,0-14.74,4.23-20,11.36a.48.48,0,0,1-.6.16.49.49,0,0,1-.29-.54c1.22-7.17-2.81-14.68-9.17-17.11a13.25,13.25,0,0,0-10.58.78,11.66,11.66,0,0,0-6.12,7.22.5.5,0,0,1-.29.33.52.52,0,0,1-.44,0,19.73,19.73,0,0,0-26.3,8.76.49.49,0,0,1-.66.24.5.5,0,0,1-.25-.66A20.79,20.79,0,0,1,285,172a12.8,12.8,0,0,1,6.46-7.26,14.26,14.26,0,0,1,11.38-.82c6.26,2.39,10.41,9.37,10,16.41,5.36-6.53,12.65-10.36,19.7-10.35,8.79,0,16.81,7,17.18,14.91a.51.51,0,0,1-.48.53Z" fill="#d1d3d4"/><path d="M190.45,214.31l-1.59,16.34s7.76,1.4,13.34-.35,7.61-2.51,12.82-.8c11.28,3.71,7.21-10.9,7.21-10.9l-15.3-3.78Z"/><path d="M205.56,134.58s20.47,1.75,27.33,17.35-7.6,69.94-7.6,69.94l-18.36-7.05s5.75-50.45-.54-57S167,141.19,167,141.19Z"/><path d="M267.83,122.1c-6.4,3.61-14.09,4-21.44,3.88a1.05,1.05,0,0,1-.85-.28,1,1,0,0,1-.12-.77q.77-7.26,2.11-14.44a1.12,1.12,0,0,1,.39-.8,1,1,0,0,1,.69-.09c1.87.19,3.66.93,5.54.93,1.4,0,2.79-.42,4.2-.33a11.69,11.69,0,0,1,2.85.66l4.13,1.33a5.45,5.45,0,0,1,2.34,1.2,1.88,1.88,0,0,1,.29,2.4" fill="#fd9e68" class="target-color"/><path d="M268.94,123.09c-2.53.26-5.36.4-7.3-1.24a5,5,0,0,1-1.56-4.93,7.42,7.42,0,0,1,2-3.19,7.5,7.5,0,0,1,2.48-1.78,8.23,8.23,0,0,1,3.85-.37,10.41,10.41,0,0,1,4.74,1.39,4.62,4.62,0,0,1,1.85,6.2A6.92,6.92,0,0,1,268.94,123.09Z" fill="#fff"/><path d="M266.37,123.75a7.54,7.54,0,0,1-5.05-1.52,5.39,5.39,0,0,1-1.72-5.43,7.84,7.84,0,0,1,2.15-3.42,8.07,8.07,0,0,1,2.66-1.89,8.9,8.9,0,0,1,4.08-.41,10.66,10.66,0,0,1,5,1.47c2.52,1.63,3.35,4.45,2,6.86a7.36,7.36,0,0,1-6.47,4.17h0A25.06,25.06,0,0,1,266.37,123.75Zm2.57-.66h0ZM267.16,112a6.34,6.34,0,0,0-2.38.4,7.16,7.16,0,0,0-2.32,1.67,7,7,0,0,0-1.9,3,4.47,4.47,0,0,0,1.4,4.42c1.79,1.51,4.51,1.37,6.93,1.12h0a6.4,6.4,0,0,0,5.7-3.67,4.11,4.11,0,0,0-1.68-5.53,9.8,9.8,0,0,0-4.51-1.32C268,112,267.6,112,267.16,112Z" fill="#231f20"/><path d="M256.27,104.49s7.42,7.3,14.08,7.82a100.75,100.75,0,0,0,10.88.36s3.66,4.54.95,7.92l-31.84-.6Z" fill="#fff"/><path d="M282.18,121.09h0l-31.84-.61a.49.49,0,0,1-.46-.67l5.94-15.5a.5.5,0,0,1,.81-.18c.07.07,7.37,7.18,13.77,7.69a102.61,102.61,0,0,0,10.82.36.49.49,0,0,1,.41.18c.16.2,3.88,4.89.94,8.54A.47.47,0,0,1,282.18,121.09Zm-31.13-1.59,30.88.59c1.88-2.64-.34-6.07-.94-6.91-1,0-5,.08-10.68-.37s-12-5.75-13.84-7.45Z" fill="#231f20"/><path d="M175.14,66.28S155.63,70,151.36,80.72c-2.87,7.16-6.61,37.71,4.14,67.43l50.06-13.57s2-13.4,1.2-22.08c0,0,27.85,14.57,32.22,14.58s18.82-13.61,18.82-13.61l-4.86-7.34s-10.77,7.55-12,3.89c-.63-1.9-20.34-24.8-32.22-37.75C202.94,65.93,191.88,64.72,175.14,66.28Z" fill="#fd9e68" class="target-color"/><path d="M190.89,67.6l.73,9.27s-2.67,5.76-8.49,4.37a12.07,12.07,0,0,1-7.94-6.63l-.09-16.89s4.29-2.41,2.93-12a34.21,34.21,0,0,0,16.6,2.3s1.24,10.15.58,14.79S190.89,67.6,190.89,67.6Z" fill="#fff"/><path d="M184.89,82a8,8,0,0,1-1.88-.23,12.45,12.45,0,0,1-8.3-6.94.41.41,0,0,1,0-.19l-.08-16.89a.49.49,0,0,1,.26-.45s4-2.42,2.67-11.51a.52.52,0,0,1,.72-.55,34,34,0,0,0,16.32,2.26.52.52,0,0,1,.38.1.55.55,0,0,1,.2.35c.05.42,1.24,10.27.58,14.93-.55,3.91-3.15,4.92-4.28,5.18l.69,8.8a.47.47,0,0,1,0,.26S189.76,82,184.89,82ZM175.7,74.5a11.59,11.59,0,0,0,7.55,6.23c4.95,1.19,7.43-3.16,7.84-4l-.72-9.13a.52.52,0,0,1,.13-.38.5.5,0,0,1,.36-.18c.14,0,3.26-.24,3.84-4.38.56-3.93-.29-12-.52-14.14a34.51,34.51,0,0,1-15.52-2.07c.87,7.91-2.11,10.8-3,11.5Z" fill="#231f20"/><path d="M191,72.21a7.37,7.37,0,0,1-6-1.94c-2.59-2.52-2.38-4-2.38-4s4.15,2.29,8,1.46Z" fill="#231f20"/><path d="M190.15,72.77a7.72,7.72,0,0,1-5.42-2.14c-2.69-2.62-2.54-4.25-2.52-4.42a.47.47,0,0,1,.27-.38.5.5,0,0,1,.46,0s4,2.19,7.6,1.42a.51.51,0,0,1,.4.08.54.54,0,0,1,.21.36l.39,4.46a.51.51,0,0,1-.42.54A5.6,5.6,0,0,1,190.15,72.77Zm-6.76-5.61a8.5,8.5,0,0,0,2,2.75,6.91,6.91,0,0,0,5.08,1.85l-.3-3.43A13.32,13.32,0,0,1,183.39,67.16Z" fill="#231f20"/><path d="M186.83,53.5s2.76,5.23,1.93,6-2.92,0-2.92,0" fill="#fff"/><path d="M187.6,60.37a6,6,0,0,1-1.93-.37.49.49,0,0,1-.29-.64.5.5,0,0,1,.64-.3c.58.22,1.94.52,2.4.09.2-.43-.74-3-2-5.41a.5.5,0,1,1,.88-.47c1.35,2.54,2.75,5.75,1.83,6.61A2.14,2.14,0,0,1,187.6,60.37Z" fill="#231f20"/><path d="M186.75,63.86h-.34a6.05,6.05,0,0,1-4.28-2.37.52.52,0,0,1,.07-.71.49.49,0,0,1,.7.06,5.07,5.07,0,0,0,3.57,2,6.71,6.71,0,0,0,4.41-1.71.51.51,0,0,1,.71,0,.5.5,0,0,1,0,.71A7.87,7.87,0,0,1,186.75,63.86Z" fill="#231f20"/><ellipse cx="183.27" cy="52.61" rx="1.35" ry="0.57" transform="translate(119.2 232.2) rotate(-86.38)" fill="#231f20"/><ellipse cx="191.04" cy="52.61" rx="1.35" ry="0.57" transform="translate(126.48 239.95) rotate(-86.38)" fill="#231f20"/><path d="M178.83,55.24a8,8,0,0,0-2-2.34,2.62,2.62,0,0,0-1.49-.68,2.34,2.34,0,0,0-1.27.39,4.91,4.91,0,0,0-2.25,3.24,4.12,4.12,0,0,0,.07,1.88A4.26,4.26,0,0,0,173.7,60a11.85,11.85,0,0,0,2.65,1.18" fill="#fff"/><path d="M176.35,61.67l-.17,0a13,13,0,0,1-2.76-1.23,4.79,4.79,0,0,1-2-2.53,4.35,4.35,0,0,1-.08-2.13,5.4,5.4,0,0,1,2.48-3.58,3,3,0,0,1,1.56-.47,3.23,3.23,0,0,1,1.79.79,8.69,8.69,0,0,1,2.13,2.5.51.51,0,1,1-.9.5,7.57,7.57,0,0,0-1.87-2.19,2.13,2.13,0,0,0-1.19-.56,1.81,1.81,0,0,0-1,.32,4.37,4.37,0,0,0-2,2.88,3.45,3.45,0,0,0,.06,1.64,3.72,3.72,0,0,0,1.6,2,11.63,11.63,0,0,0,2.54,1.13.52.52,0,0,1,.31.66A.51.51,0,0,1,176.35,61.67Z" fill="#231f20"/><path d="M171.79,60.88l.1.17a7.41,7.41,0,0,0,3,3.26,3.29,3.29,0,0,0,4-.69c.8-1.11.6-2.65.69-3.94.17-2.45-.53-6.87,1-9,.72-1,2.73-1.07,3.81-1.2a36,36,0,0,1,6.05-.18,17.13,17.13,0,0,1,2.37.23c1.15.2,1.22.5,1.31,1.66.24,3.27.71,6.51,1.14,9.76a1.14,1.14,0,0,0,.24.64c1.94-.62,2.51-6.18,2.67-7.87a24.37,24.37,0,0,0-1.48-10.43,11.89,11.89,0,0,0-3.28-4.72A14,14,0,0,0,181.38,35c-5.2.82-10.13,4.05-11.48,9.32A23.2,23.2,0,0,0,171.79,60.88Z"/><ellipse cx="161.85" cy="233.17" rx="27.69" ry="19.05" transform="matrix(0.02, -1, 1, 0.02, -74.35, 390.57)"/><rect x="124.63" y="223.47" width="55.39" height="19.05" transform="translate(-83.51 380.88) rotate(-88.91)"/><ellipse cx="142.81" cy="232.81" rx="27.69" ry="19.05" transform="translate(-92.67 371.18) rotate(-88.91)"/><ellipse cx="142.81" cy="232.81" rx="18.58" ry="9.52" transform="matrix(0.02, -1, 1, 0.02, -92.67, 371.18)" fill="#fff"/><path d="M139.43,170.69s-3.35.35-4.33-4,0-7.7,2.36-8.07,59.11-2,60.73,1.15,2.12,8.37-4,12S139.43,170.69,139.43,170.69Z" fill="#fff"/><path d="M180.83,173.6c-15.91,0-39.66-2.24-41.41-2.41-.48,0-3.81,0-4.8-4.43-.69-3-.47-5.69.59-7.25a3.21,3.21,0,0,1,2.17-1.42c.56-.09,59.3-2.4,61.25,1.41s1.83,9.08-4.22,12.66C192.61,173.22,187.38,173.6,180.83,173.6Zm-41.4-3.41h0c.49,0,48.48,4.61,54.42,1.1,6.87-4.05,4.68-9.71,3.84-11.34-2-2.58-56.81-1.42-60.2-.89a2.18,2.18,0,0,0-1.5,1c-.9,1.32-1.07,3.74-.45,6.47.87,3.92,3.68,3.67,3.79,3.66Z" fill="#231f20"/><path d="M202.5,123.05a7.55,7.55,0,0,1-5.24-.9,6.28,6.28,0,0,1-2.64-5,9.38,9.38,0,0,1,1.7-5.49,6.3,6.3,0,0,1,1.52-1.69,5.51,5.51,0,0,1,4.6-.67,11.63,11.63,0,0,1,4.17,2.3,5.38,5.38,0,0,1,1.6,1.76c1,2.08.47,4.52-.6,6.46A6.31,6.31,0,0,1,202.5,123.05Z" fill="#fff"/><path d="M201,123.66a7.28,7.28,0,0,1-4-1.09,6.81,6.81,0,0,1-2.86-5.37,9.92,9.92,0,0,1,1.78-5.8,6.69,6.69,0,0,1,1.65-1.81,6,6,0,0,1,5-.75,11.71,11.71,0,0,1,4.36,2.39,5.94,5.94,0,0,1,1.74,1.93c1,2,.74,4.47-.61,6.92a6.81,6.81,0,0,1-5.48,3.46h0A10.64,10.64,0,0,1,201,123.66Zm-.21-14.06a4.49,4.49,0,0,0-2.67.8,5.84,5.84,0,0,0-1.4,1.55,9,9,0,0,0-1.61,5.2,5.8,5.8,0,0,0,2.41,4.59,7.23,7.23,0,0,0,4.9.82h0a5.84,5.84,0,0,0,4.75-3c.56-1,1.74-3.65.58-6A5.05,5.05,0,0,0,206.3,112a10.92,10.92,0,0,0-4-2.21A6.15,6.15,0,0,0,200.8,109.6Z" fill="#231f20"/><path d="M244.73,98.55s-10.87-.16-16.71,4-6.37,6.39-13.13,8.34-22.43,1.63-22.43,1.63l-.13,7,32.38,1.76a44.73,44.73,0,0,1,1.32,8.4,6.75,6.75,0,0,0,2.5,4.86l24.19.95s3.05-14.31,6.26-16.66C263.4,115.57,250,98.23,244.73,98.55Z" fill="#fff"/><path d="M252.72,136h0L228.51,135a.49.49,0,0,1-.28-.11,7.16,7.16,0,0,1-2.7-5.26,41.27,41.27,0,0,0-1.22-7.92l-32-1.73a.5.5,0,0,1-.47-.51l.13-7a.5.5,0,0,1,.16-.34.46.46,0,0,1,.35-.14c.16,0,15.67.29,22.28-1.62a19.12,19.12,0,0,0,8.6-4.8c1.17-1,2.5-2.13,4.38-3.47,5.84-4.15,16.32-4.08,17-4.07,4.25-.26,12.71,9.35,15,15.8,1.18,3.26.39,4.71-.48,5.35-2.51,1.84-5.24,12.44-6.08,16.37A.49.49,0,0,1,252.72,136Zm-24-1.94,23.6.93c.54-2.42,3.32-14.32,6.37-16.55,1.08-.8.67-2.73.13-4.21-2.3-6.37-10.41-15.15-13.94-15.15h-.16c-.11,0-10.77-.12-16.41,3.9a54.37,54.37,0,0,0-4.31,3.41,20.19,20.19,0,0,1-9,5c-6.15,1.78-19.3,1.7-22.07,1.66l-.11,6,31.89,1.73a.49.49,0,0,1,.46.37,44.19,44.19,0,0,1,1.34,8.54A6.18,6.18,0,0,0,228.72,134Z" fill="#231f20"/><circle cx="244.43" cy="110.09" r="11.54"/><circle cx="250.52" cy="110.2" r="11.54"/><rect x="235.94" y="107.1" width="23.08" height="6.09" transform="translate(132.66 355.49) rotate(-88.91)"/><circle cx="250.52" cy="110.2" r="9.56" fill="#fd9e68" class="target-color"/><path d="M240.91,237a2.75,2.75,0,0,1-.52.11H163.62c-7-2.22-9.05-7-12.12-15.61l-30.38-.58s4.42-24.34,11.53-37.08,8.57-13.12,8.57-13.12,57.94-.67,57.9,1.42-5.87,32.45-10.83,41.73-3,16.18.72,16.87,13.91-.41,18.12-2.62,6-72.93,6.83-82.49c.52-6.18,3.75-7.66,8.86-9.69a24.66,24.66,0,0,0,2.41-1.21,29.27,29.27,0,0,1,15.33-3.14c11.1.64,18.77,2.85,22.17,9.79s11.53,28.94,12.48,33.75,2,15.44-6.6,29.64S242.39,236.2,240.91,237Z" fill="#fff"/><path d="M163.62,237.62l-.15,0c-7.15-2.25-9.29-7.16-12.32-15.6l-30-.57a.51.51,0,0,1-.38-.18.5.5,0,0,1-.1-.41c0-.24,4.51-24.57,11.58-37.23,6.7-12,8.49-13.26,8.89-13.37h.12c9.37-.11,56.22-.54,58.2,1.46a.65.65,0,0,1,.2.47c-.05,2.45-5.91,32.63-10.89,42-3.44,6.43-3.37,11.43-2.15,14a3.69,3.69,0,0,0,2.52,2.2c3.49.65,13.61-.38,17.79-2.58,3-1.56,5-47.33,5.82-66.88.32-7.24.57-13,.76-15.22.53-6.37,3.83-8,9.17-10.11a15.36,15.36,0,0,0,1.78-.87l.57-.31a29.85,29.85,0,0,1,15.6-3.2c9.43.55,18.7,2.15,22.59,10.07,3.37,6.85,11.56,29,12.52,33.87,1.85,9.37-.46,19.74-6.67,30-8.82,14.57-26.44,31.62-27.88,32.4h0a1.9,1.9,0,0,1-.68.17Zm77.29-.61h0Zm-77.21-.39h76.69l.3-.06c1.51-.89,19-18,27.49-32,6.08-10.05,8.34-20.17,6.54-29.29-1-4.82-9.09-26.82-12.43-33.63-3-6-9.27-8.79-21.76-9.52a28.85,28.85,0,0,0-15.07,3.09l-.56.3a17.44,17.44,0,0,1-1.89.93c-5.13,2-8.06,3.47-8.55,9.27-.19,2.24-.44,7.95-.76,15.18-1.77,40.68-3.45,66.19-6.34,67.71-4.43,2.33-14.73,3.36-18.44,2.67a4.6,4.6,0,0,1-3.24-2.74c-1.71-3.57-.9-9.12,2.17-14.86,4.83-9,10.43-38.17,10.76-41.3-2.89-1.26-35.56-1.37-57.28-1.12-.19.16-2,1.76-8.25,12.87-6.38,11.44-10.64,32.6-11.36,36.36l29.79.56a.5.5,0,0,1,.46.33C155,229.89,157,234.47,163.7,236.62Z" fill="#231f20"/><ellipse cx="272.24" cy="233.06" rx="27.69" ry="16.03" transform="matrix(0.02, -1, 1, 0.02, 34.06, 500.83)"/><rect x="236.54" y="224.89" width="55.39" height="16.03" transform="translate(26.35 492.67) rotate(-88.91)"/><ellipse cx="256.22" cy="232.76" rx="27.69" ry="16.03" transform="translate(18.64 484.51) rotate(-88.91)"/><ellipse cx="256.22" cy="232.76" rx="18.58" ry="8.01" transform="translate(18.64 484.51) rotate(-88.91)" fill="#fff"/><path d="M259.93,182.29s10.05-2,15.54,4.27,12.37,22.18,10.78,23.71-30.14.37-38,1l-10.95,9.63S236,208.69,238.67,200,242.85,185.25,259.93,182.29Z" fill="#fff"/><path d="M237.34,221.4a.53.53,0,0,1-.18,0,.49.49,0,0,1-.32-.41c-.05-.5-1.31-12.4,1.35-21.1l.16-.52c2.59-8.46,4.46-14.58,21.49-17.53.51-.1,10.42-2,16,4.43,5.11,5.85,12.83,22.4,10.75,24.4-1,1-7.84,1-22.13,1-6.59,0-12.83-.06-16,.17l-10.84,9.52A.5.5,0,0,1,237.34,221.4Zm26.28-38.91a20.47,20.47,0,0,0-3.6.29h0c-16.43,2.85-18.13,8.42-20.71,16.84l-.15.53c-2.18,7.09-1.65,16.68-1.41,19.73l10.22-9a.48.48,0,0,1,.29-.13c3.14-.25,9.5-.22,16.23-.18,8.61,0,20.4.1,21.43-.68,1-1.23-5-16.33-10.81-23C271.88,183.21,267,182.49,263.62,182.49Zm-3.69-.2h0Z" fill="#231f20"/><path d="M258.86,175.12a.49.49,0,0,1-.5-.47c-1.22-22.72-8.73-35.5-8.81-35.63a.5.5,0,0,1,.17-.68.49.49,0,0,1,.69.17c.08.13,7.71,13.09,9,36.08a.5.5,0,0,1-.48.53Z" fill="#d1d3d4"/><path d="M262.74,207.46a.5.5,0,0,1-.49-.39c0-.13-2.87-12.85-8.84-17.8a.5.5,0,1,1,.64-.76c6.23,5.16,9.06,17.81,9.17,18.35a.5.5,0,0,1-.38.59Z" fill="#231f20"/><path d="M189,231.25h0l-21.44-.4a.5.5,0,0,1,0-1l21.44.41a.5.5,0,1,1,0,1Z" fill="#231f20"/><path d="M158.34,218.65c-4.18,0-7.59-.19-7.91-.2a.52.52,0,0,1-.47-.53.5.5,0,0,1,.53-.47c.18,0,18.07,1,22.72-1.53.75-.4,1.19-1.72,1.3-3.82.45-8.77-5-26.23-6.35-27.16-1.57-1.07-14.87-1.9-23.43-2.2a.51.51,0,0,1-.48-.52.53.53,0,0,1,.52-.48c2.21.08,21.64.81,23.95,2.38,2.08,1.41,7.21,19.68,6.79,28-.13,2.54-.73,4.06-1.82,4.65C170.88,218.32,163.92,218.65,158.34,218.65Z" fill="#231f20"/><path d="M202.19,109.21a2.23,2.23,0,0,1,2-.7,5.1,5.1,0,0,1,2.06.88,2.42,2.42,0,0,1,3.22-.39,1.42,1.42,0,0,1,1.84-.09,3.58,3.58,0,0,1,1.14,1.63,20.19,20.19,0,0,1,1.37,4.61,3.41,3.41,0,0,1,0,1.82,1.34,1.34,0,0,1-1.41.92,1.81,1.81,0,0,1-1-.86,9,9,0,0,1-1.23-2.74c.34,1.15.61,2.59-.3,3.38a2.15,2.15,0,0,1-2.7-.18,6.15,6.15,0,0,1-1.55-2.48,6.13,6.13,0,0,1-.29,3.09.51.51,0,0,1-.25.32.52.52,0,0,1-.38-.08,8.06,8.06,0,0,1-2.86-3.74,3.89,3.89,0,0,1,.39,2.18c-.16.73-.95,1.38-1.65,1.09a1.89,1.89,0,0,1-.84-1,22.12,22.12,0,0,1-1.4-3.42c-.38-1.21-.68-3,.2-4.11A2.76,2.76,0,0,1,202.19,109.21Z" fill="#fff"/><path d="M205,118.93a1.08,1.08,0,0,1-.54-.16,5.57,5.57,0,0,1-1.79-1.69,2.1,2.1,0,0,1-1,1.17,1.51,1.51,0,0,1-1.29.08,2.31,2.31,0,0,1-1.09-1.19,22.21,22.21,0,0,1-1.44-3.5c-.35-1.14-.79-3.24.29-4.57a2.8,2.8,0,0,1,1.94-1,3.48,3.48,0,0,1,2.09.46,2.78,2.78,0,0,1,2.16-.54,5.07,5.07,0,0,1,1.91.73,3,3,0,0,1,3.25-.36,2,2,0,0,1,2.17.11,4.08,4.08,0,0,1,1.32,1.85,20,20,0,0,1,1.4,4.72,3.93,3.93,0,0,1-.06,2.07,1.84,1.84,0,0,1-2,1.24A2.24,2.24,0,0,1,211,117.3l-.15-.22a2.17,2.17,0,0,1-.64,1,2.68,2.68,0,0,1-3.35-.18,4,4,0,0,1-.74-.81,5.69,5.69,0,0,1-.32,1.21,1,1,0,0,1-.54.62A.82.82,0,0,1,205,118.93Zm-3.15-4.83a.49.49,0,0,1,.45.28,7.55,7.55,0,0,0,2.59,3.48,5.64,5.64,0,0,0,.25-2.77.51.51,0,0,1,.36-.56.48.48,0,0,1,.59.29,5.61,5.61,0,0,0,1.41,2.28,1.69,1.69,0,0,0,2.06.2c.49-.44.57-1.24.24-2.52l-.1-.37a.49.49,0,0,1,.35-.6.5.5,0,0,1,.61.34c0,.12.07.24.1.37a8.49,8.49,0,0,0,1.07,2.23c.17.25.43.6.73.66s.71-.27.85-.62a3,3,0,0,0,0-1.55,19.57,19.57,0,0,0-1.33-4.5,3.18,3.18,0,0,0-1-1.42.93.93,0,0,0-1.18,0,.5.5,0,0,1-.68.07,1.92,1.92,0,0,0-2.53.3.51.51,0,0,1-.66.11,4.86,4.86,0,0,0-1.86-.81,1.73,1.73,0,0,0-1.58.52.51.51,0,0,1-.71.07,2.42,2.42,0,0,0-1.73-.5,1.76,1.76,0,0,0-1.25.6c-.82,1-.35,2.89-.12,3.65a20.25,20.25,0,0,0,1.38,3.34c.15.3.33.63.58.73a.5.5,0,0,0,.44,0,1.06,1.06,0,0,0,.53-.69,3.55,3.55,0,0,0-.36-1.9.49.49,0,0,1,.26-.63A.51.51,0,0,1,201.8,114.1Z" fill="#231f20"/><path d="M269.41,109.89a2.48,2.48,0,0,1,2-.66,5.22,5.22,0,0,1,2.06.88,2.41,2.41,0,0,1,3.21-.39,1.44,1.44,0,0,1,1.85-.09,3.69,3.69,0,0,1,1.14,1.64,20,20,0,0,1,1.37,4.6,3.61,3.61,0,0,1,0,1.82,1.36,1.36,0,0,1-1.41.93,1.87,1.87,0,0,1-1.05-.87,9,9,0,0,1-1.23-2.74c.34,1.15.6,2.59-.3,3.38a2.17,2.17,0,0,1-2.71-.18,6.23,6.23,0,0,1-1.54-2.48c.26.62.21,2.1-.53,2.41s-2-.58-2.5-1.18a11.49,11.49,0,0,1-.72-1.51c-.12.49,0,1-.09,1.52a2,2,0,0,1-.19.68.81.81,0,0,1-.53.43.87.87,0,0,1-.48,0,2.17,2.17,0,0,1-1.19-1.06,9.86,9.86,0,0,1-.85-3.17c-.12-1-.22-2.24-1.18-2.9a.84.84,0,0,1-.28-.25c-.39-.8,2.18-1.32,2.64-1.37A3.7,3.7,0,0,1,269.41,109.89Z" fill="#fff"/><path d="M275.94,119.28a3,3,0,0,1-1.9-.69,4,4,0,0,1-.78-.87,1.55,1.55,0,0,1-.78.88c-1.1.46-2.42-.51-3.06-1.3a2.22,2.22,0,0,1-.2.58,1.33,1.33,0,0,1-.86.69,1.41,1.41,0,0,1-.75-.06,2.67,2.67,0,0,1-1.47-1.29,10.44,10.44,0,0,1-.9-3.36l0-.13a3.16,3.16,0,0,0-1-2.41,1.18,1.18,0,0,1-.45-.44.86.86,0,0,1,0-.81c.52-.94,3-1.27,3-1.27a4.18,4.18,0,0,1,2.5.48,2.91,2.91,0,0,1,2.16-.54,5.06,5.06,0,0,1,1.92.74,3,3,0,0,1,3.25-.37,2,2,0,0,1,2.17.11,4.08,4.08,0,0,1,1.32,1.85,21,21,0,0,1,1.4,4.72,3.83,3.83,0,0,1-.07,2.07,1.83,1.83,0,0,1-2,1.24,2.26,2.26,0,0,1-1.36-1.07l-.15-.23a2.26,2.26,0,0,1-.64,1A2.18,2.18,0,0,1,275.94,119.28Zm-3.13-4a.5.5,0,0,1,.46.31,5.82,5.82,0,0,0,1.4,2.29,1.7,1.7,0,0,0,2.06.19c.5-.44.58-1.24.25-2.53,0-.12-.07-.24-.1-.36a.49.49,0,0,1,.35-.6.5.5,0,0,1,.61.34c0,.12.07.24.1.36a8.37,8.37,0,0,0,1.06,2.24c.19.28.44.6.73.66s.72-.27.85-.62a3.12,3.12,0,0,0,0-1.55,19.59,19.59,0,0,0-1.34-4.5,3.18,3.18,0,0,0-1-1.42.94.94,0,0,0-1.18,0,.5.5,0,0,1-.68.07,1.92,1.92,0,0,0-2.53.3.5.5,0,0,1-.65.11,4.93,4.93,0,0,0-1.86-.81,2,2,0,0,0-1.64.53.5.5,0,0,1-.61.06,3.2,3.2,0,0,0-2.18-.52,6.09,6.09,0,0,0-2.17.68,4,4,0,0,1,1.42,3.14l0,.14a9.28,9.28,0,0,0,.8,3,1.56,1.56,0,0,0,.89.81.51.51,0,0,0,.23,0,.38.38,0,0,0,.19-.19,1.59,1.59,0,0,0,.14-.51,3.92,3.92,0,0,0,0-.6,4.07,4.07,0,0,1,.07-1A.5.5,0,0,1,269,115a.49.49,0,0,1,.5.23,4,4,0,0,1,.32.71,2.91,2.91,0,0,0,.37.75c.46.57,1.41,1.25,1.92,1s.47-1.25.26-1.76a.5.5,0,0,1,.27-.65A.43.43,0,0,1,272.81,115.23Z" fill="#231f20"/><path d="M155.62,148.19c-1.19,3.4,3,9.23,5.91,9.95,5.61,1.63,18.09,2.18,20.55,4.1s8.17,54.12,8.17,54.12l16.68-1.54c1.45-9.28,10.31-60.87-3.51-68.6-3.74-2.09-19.81-5.69-19.81-5.69s-26.09,5-27.51,6.78A3,3,0,0,0,155.62,148.19Z"/><path d="M151.2,194.07h0l-12.07-.23a.49.49,0,0,1-.49-.51.48.48,0,0,1,.51-.49l12.07.23a.5.5,0,0,1,0,1Z" fill="#d1d3d4"/><path d="M151.06,201.26h0L139,201a.5.5,0,0,1-.49-.51A.5.5,0,0,1,139,200l12.07.23a.5.5,0,0,1,0,1Z" fill="#d1d3d4"/><path d="M205.94,103.87a.49.49,0,0,1-.49-.5V79a.5.5,0,1,1,1,0v24.4A.5.5,0,0,1,205.94,103.87Z" fill="#231f20"/><path d="M191.14,109.7c-9.55,0-21.93-1-24.6-6.1C162.83,96.54,162.06,79.7,162,79a.5.5,0,1,1,1,0c0,.17.79,17.32,4.4,24.19,2.11,4,12.46,6,28.41,5.48h.53a.5.5,0,1,1,0,1l-.49,0C194.42,109.66,192.83,109.7,191.14,109.7Z" fill="#231f20"/><path d="M166.4,131.91a21.49,21.49,0,0,1-8.86-1.61.5.5,0,1,1,.41-.91c12.48,5.69,40.34-6.56,40.62-6.68a.5.5,0,0,1,.41.91,130.17,130.17,0,0,1-15.78,5.56A64.68,64.68,0,0,1,166.4,131.91Z" fill="#231f20"/><path d="M206.93,215.32h0l-16.47-.51a.5.5,0,0,1,0-1l16.47.51a.51.51,0,0,1,.49.52A.5.5,0,0,1,206.93,215.32Z" fill="#fff"/><path d="M208.75,163.66a.49.49,0,0,1-.49-.49c0-.09-.23-9.77-3.83-15.65s-15.49-5.27-15.61-5.27a.5.5,0,1,1,0-1c.51,0,12.68-.5,16.5,5.74s4,15.75,4,16.15a.49.49,0,0,1-.49.51Z" fill="#fff"/><path d="M173.15,50.24a15.68,15.68,0,0,1,8-8.52c6.21-3,14.66-2.75,15.74-1.3s3,9.36,2.13,9.47-14.58-1.84-20.87,2.43S173.15,50.24,173.15,50.24Z" fill="#fff"/><path d="M174.67,54.29a2.06,2.06,0,0,1-1.14-.32c-1.42-1-.93-3.55-.86-3.84a.11.11,0,0,1,0-.05,16,16,0,0,1,8.23-8.81c6.29-3,15-2.91,16.35-1.15,1.06,1.42,2.89,8.53,2.34,9.83a.7.7,0,0,1-.55.44,11.22,11.22,0,0,1-1.47-.07c-3.85-.29-14.06-1.06-19.18,2.41A7.33,7.33,0,0,1,174.67,54.29Zm-1-3.92c-.12.59-.27,2.28.45,2.77.36.24,1.33.4,3.75-1.24,5.41-3.66,15.87-2.88,19.81-2.58l1.06.07c.16-1.29-1.29-7.38-2.25-8.67s-9-1.48-15.12,1.45A15.32,15.32,0,0,0,173.64,50.37Z" fill="#231f20"/><path d="M181.82,46.83a.5.5,0,0,1-.35-.86l4.31-4.21a.48.48,0,0,1,.7,0,.49.49,0,0,1,0,.7l-4.31,4.22A.54.54,0,0,1,181.82,46.83Z" fill="#d1d3d4"/><path d="M190.37,47.6a.47.47,0,0,1-.35-.14.49.49,0,0,1,0-.7c1.71-1.78,4.36-4.57,4.66-4.95a.5.5,0,1,1,.79.61c-.42.55-4.29,4.57-4.73,5A.51.51,0,0,1,190.37,47.6Z" fill="#d1d3d4"/><path d="M185.84,108.15a.49.49,0,0,1-.49-.49l-.59-25.15a.49.49,0,0,1,.48-.51.51.51,0,0,1,.51.49l.59,25.15a.5.5,0,0,1-.48.51Z" fill="#231f20"/><path d="M186.87,137.43a.49.49,0,0,1-.49-.43l-1-7.89a.49.49,0,0,1,.43-.55.5.5,0,0,1,.56.42l1,7.89a.5.5,0,0,1-.43.56Z" fill="#231f20"/><path d="M216.41,89.43a5.53,5.53,0,0,1-1.28-.15,4.72,4.72,0,0,1-3-2.41,5.57,5.57,0,0,1-.73-4.53,4.69,4.69,0,0,1,2.4-2.58.5.5,0,0,1,.39.91,3.72,3.72,0,0,0-1.85,2,4.62,4.62,0,0,0,.66,3.71,3.75,3.75,0,0,0,2.39,1.93c2.5.61,5.51-1.33,5.54-1.35a.5.5,0,0,1,.69.15.49.49,0,0,1-.14.68A10.46,10.46,0,0,1,216.41,89.43Z" fill="#231f20"/><rect x="237.99" y="163.16" width="44.85" height="17.6" rx="1.73" fill="#fff"/><path d="M281.1,181.26H239.72a2.23,2.23,0,0,1-2.23-2.23V164.9a2.23,2.23,0,0,1,2.23-2.23H281.1a2.23,2.23,0,0,1,2.23,2.23V179A2.23,2.23,0,0,1,281.1,181.26Zm-41.38-17.6a1.24,1.24,0,0,0-1.23,1.24V179a1.23,1.23,0,0,0,1.23,1.23H281.1a1.24,1.24,0,0,0,1.24-1.23V164.9a1.25,1.25,0,0,0-1.24-1.24Z" fill="#231f20"/><path d="M173.75,69.34a1.53,1.53,0,0,0-2.05-.54,60.31,60.31,0,0,0-9.26,5.4,1.54,1.54,0,0,0-.54,2,1.52,1.52,0,0,0,2.06.54,59.74,59.74,0,0,1,9.25-5.4A1.5,1.5,0,0,0,173.75,69.34Z" fill="#231f20"/><path d="M205.57,72.13l-9.35-2.28a1.5,1.5,0,1,0-.8,2.9L204.77,75a1.5,1.5,0,1,0,.8-2.89Z" fill="#231f20"/></g></svg>